<svg width="20" height="21" viewBox="0 0 20 21" fill="none" xmlns="http://www.w3.org/2000/svg">
<path d="M9.72222 18.9074C7.46604 18.9074 5.30227 18.0197 3.7069 16.4395C2.11154 14.8593 1.21528 12.7162 1.21528 10.4815C1.21528 8.24679 2.11154 6.10362 3.7069 4.52345C5.30227 2.94328 7.46604 2.05556 9.72222 2.05556C11.9784 2.05556 14.1422 2.94328 15.7375 4.52345C17.3329 6.10362 18.2292 8.24679 18.2292 10.4815C18.2292 12.7162 17.3329 14.8593 15.7375 16.4395C14.1422 18.0197 11.9784 18.9074 9.72222 18.9074ZM9.72222 20.1111C12.3007 20.1111 14.7736 19.0966 16.5969 17.2907C18.4201 15.4848 19.4444 13.0354 19.4444 10.4815C19.4444 7.92755 18.4201 5.47821 16.5969 3.67231C14.7736 1.8664 12.3007 0.851852 9.72222 0.851852C7.14373 0.851852 4.67084 1.8664 2.84757 3.67231C1.0243 5.47821 0 7.92755 0 10.4815C0 13.0354 1.0243 15.4848 2.84757 17.2907C4.67084 19.0966 7.14373 20.1111 9.72222 20.1111Z" fill="#FF9500"/>
<path d="M8.50932 14.0926C8.50932 13.9345 8.54075 13.778 8.60182 13.6319C8.6629 13.4859 8.75241 13.3532 8.86526 13.2414C8.97811 13.1297 9.11208 13.041 9.25953 12.9805C9.40697 12.92 9.565 12.8889 9.72459 12.8889C9.88419 12.8889 10.0422 12.92 10.1897 12.9805C10.3371 13.041 10.4711 13.1297 10.5839 13.2414C10.6968 13.3532 10.7863 13.4859 10.8474 13.6319C10.9084 13.778 10.9399 13.9345 10.9399 14.0926C10.9399 14.4118 10.8118 14.718 10.5839 14.9437C10.356 15.1695 10.0469 15.2963 9.72459 15.2963C9.40228 15.2963 9.09317 15.1695 8.86526 14.9437C8.63735 14.718 8.50932 14.4118 8.50932 14.0926ZM8.62841 6.86434C8.61223 6.71248 8.62846 6.55895 8.67605 6.41371C8.72364 6.26846 8.80153 6.13475 8.90467 6.02125C9.0078 5.90775 9.13388 5.81699 9.27471 5.75486C9.41555 5.69274 9.56799 5.66063 9.72216 5.66063C9.87633 5.66063 10.0288 5.69274 10.1696 5.75486C10.3104 5.81699 10.4365 5.90775 10.5397 6.02125C10.6428 6.13475 10.7207 6.26846 10.7683 6.41371C10.8159 6.55895 10.8321 6.71248 10.8159 6.86434L10.3906 11.0857C10.3763 11.2516 10.2997 11.406 10.1759 11.5186C10.0521 11.6312 9.8902 11.6937 9.72216 11.6937C9.55412 11.6937 9.3922 11.6312 9.26843 11.5186C9.14466 11.406 9.06805 11.2516 9.05376 11.0857L8.62841 6.86434Z" fill="#FF9500"/>
</svg>
