<svg width="30" height="30" viewBox="0 0 30 30" fill="none" xmlns="http://www.w3.org/2000/svg">
<path fill-rule="evenodd" clip-rule="evenodd" d="M29.1667 15C29.1667 22.8239 22.824 29.1666 15 29.1666C7.176 29.1666 0.833374 22.8239 0.833374 15C0.833374 7.17594 7.176 0.833313 15 0.833313C22.824 0.833313 29.1667 7.17594 29.1667 15ZM15 8.97915C14.1199 8.97915 13.4063 9.69269 13.4063 10.5729C13.4063 11.1597 12.9306 11.6354 12.3438 11.6354C11.757 11.6354 11.2813 11.1597 11.2813 10.5729C11.2813 8.51908 12.9463 6.85415 15 6.85415C17.0538 6.85415 18.7188 8.51908 18.7188 10.5729C18.7188 11.5799 18.3172 12.4953 17.6676 13.164C17.5369 13.2984 17.4122 13.4231 17.2932 13.5419C16.9875 13.8474 16.7196 14.115 16.4846 14.417C16.1743 14.8157 16.0625 15.1088 16.0625 15.3541V16.4166C16.0625 17.0034 15.5868 17.4791 15 17.4791C14.4133 17.4791 13.9375 17.0034 13.9375 16.4166V15.3541C13.9375 14.4259 14.3696 13.6745 14.8077 13.1118C15.1316 12.6955 15.5389 12.2889 15.8696 11.959C15.9693 11.8595 16.062 11.767 16.1433 11.6832C16.4232 11.3952 16.5938 11.005 16.5938 10.5729C16.5938 9.69269 15.8802 8.97915 15 8.97915ZM15 22.0833C15.7825 22.0833 16.4167 21.4491 16.4167 20.6666C16.4167 19.8842 15.7825 19.25 15 19.25C14.2176 19.25 13.5834 19.8842 13.5834 20.6666C13.5834 21.4491 14.2176 22.0833 15 22.0833Z" fill="#D5D5D5"/>
</svg>
