<svg width="18" height="19" viewBox="0 0 18 19" fill="none" xmlns="http://www.w3.org/2000/svg">
<path d="M1.55556 4.08333H16M12.3889 4.08333L12.1446 3.35034C11.9078 2.64002 11.7894 2.28486 11.5698 2.02227C11.3759 1.7904 11.1269 1.61091 10.8456 1.50029C10.527 1.375 10.1527 1.375 9.40395 1.375H8.15161C7.40285 1.375 7.02856 1.375 6.70998 1.50029C6.42868 1.61091 6.17966 1.7904 5.98575 2.02227C5.76616 2.28486 5.64778 2.64002 5.411 3.35034L5.16667 4.08333M14.1944 4.08333V13.2917C14.1944 14.8085 14.1944 15.5668 13.8992 16.1462C13.6396 16.6559 13.2253 17.0702 12.7157 17.3298C12.1363 17.625 11.378 17.625 9.86111 17.625H7.69445C6.17764 17.625 5.41923 17.625 4.83989 17.3298C4.33028 17.0702 3.91596 16.6559 3.6563 16.1462C3.36111 15.5668 3.36111 14.8085 3.36111 13.2917V4.08333M10.5833 7.69444V14.0139M6.97222 7.69444V14.0139" stroke="black" stroke-width="2.22222" stroke-linecap="round" stroke-linejoin="round"/>
</svg>
